<svg width="30" height="30" viewBox="0 0 30 30" fill="none" xmlns="http://www.w3.org/2000/svg">
<g id="Instagram">
<path id="Combined Shape" d="M15 0C23.2843 0 30 6.71573 30 15C30 23.2843 23.2843 30 15 30C6.71573 30 0 23.2843 0 15C0 6.71573 6.71573 0 15 0ZM14.999 7C12.828 7.00001 12.5552 7.00903 11.7021 7.04785C10.8507 7.08684 10.2693 7.22216 9.76074 7.41992C9.23457 7.62426 8.78744 7.89794 8.34277 8.34277C7.89797 8.78733 7.62487 9.23389 7.41992 9.75977C7.22163 10.2686 7.08618 10.8499 7.04785 11.7012C7.00968 12.5545 7 12.8274 7 15C7 17.1726 7.00919 17.4446 7.04785 18.2979C7.08701 19.1493 7.22233 19.7307 7.41992 20.2393C7.62442 20.7654 7.89794 21.2126 8.34277 21.6572C8.7872 22.1021 9.23403 22.3758 9.75977 22.5801C10.2687 22.7778 10.8499 22.9131 11.7012 22.9521C12.5545 22.991 12.8275 23 15 23C17.1726 23 17.4445 22.991 18.2979 22.9521C19.1494 22.9131 19.7313 22.7779 20.2402 22.5801C20.7661 22.3758 21.2119 22.102 21.6562 21.6572C22.1012 21.2127 22.3751 20.7661 22.5801 20.2402C22.7767 19.7314 22.9121 19.1492 22.9521 18.2979C22.9905 17.4447 23 17.1724 23 15C23 12.8274 22.9905 12.5545 22.9521 11.7012C22.9121 10.8496 22.7767 10.2684 22.5801 9.75977C22.3751 9.23359 22.1013 8.78744 21.6562 8.34277C21.2113 7.89787 20.7668 7.62407 20.2402 7.41992C19.7303 7.2221 19.1484 7.08687 18.2969 7.04785C17.4436 7.00902 17.1717 7 14.999 7Z" fill="white"/>
<path id="Combined Shape_2" d="M14.2822 8.44141C14.4952 8.44107 14.733 8.44141 15 8.44141C17.1358 8.44141 17.389 8.44898 18.2324 8.4873C19.0123 8.52296 19.4358 8.65321 19.7178 8.7627C20.091 8.90766 20.357 9.08146 20.6367 9.36133C20.9167 9.64133 21.091 9.90791 21.2363 10.2812C21.3458 10.5629 21.4762 10.9867 21.5117 11.7666C21.55 12.6097 21.5576 12.8633 21.5576 14.998C21.5576 17.1328 21.55 17.3863 21.5117 18.2295C21.4761 19.0094 21.3458 19.4332 21.2363 19.7148C21.0913 20.0882 20.9167 20.354 20.6367 20.6338C20.3568 20.9136 20.0912 21.0875 19.7178 21.2324C19.4361 21.3424 19.0123 21.4722 18.2324 21.5078C17.3892 21.5461 17.1358 21.5547 15 21.5547C12.8642 21.5547 12.6105 21.5461 11.7676 21.5078C10.9876 21.4718 10.5634 21.3409 10.2812 21.2314C9.90815 21.0865 9.64122 20.9137 9.36133 20.6338C9.08134 20.3538 8.90803 20.0874 8.7627 19.7139C8.65323 19.4322 8.52282 19.009 8.4873 18.2295C8.44897 17.3862 8.44141 17.1324 8.44141 14.9961C8.44141 12.86 8.44898 12.6077 8.4873 11.7646C8.52296 10.985 8.65322 10.5613 8.7627 10.2793C8.90764 9.90611 9.08152 9.63926 9.36133 9.35938C9.64122 9.07948 9.90815 8.90604 10.2812 8.76074C10.5633 8.65074 10.9876 8.52021 11.7676 8.48438C12.5052 8.45106 12.7915 8.44112 14.2822 8.43945V8.44141ZM15 10.8916C12.7311 10.8916 10.8916 12.7311 10.8916 15C10.8917 17.2688 12.7312 19.1074 15 19.1074C17.2687 19.1073 19.1073 17.2687 19.1074 15C19.1074 12.7313 17.2687 10.8918 15 10.8916ZM19.1719 9.77441C18.688 9.82361 18.3105 10.2325 18.3105 10.7295C18.3106 11.2595 18.7405 11.6895 19.2705 11.6895C19.8004 11.6893 20.2305 11.2594 20.2305 10.7295C20.2305 10.1996 19.8004 9.76971 19.2705 9.76953L19.1719 9.77441Z" fill="white"/>
<path id="Shape" fill-rule="evenodd" clip-rule="evenodd" d="M15.0026 12.333C16.4753 12.333 17.6693 13.5269 17.6693 14.9997C17.6693 16.4724 16.4753 17.6664 15.0026 17.6664C13.5298 17.6664 12.3359 16.4724 12.3359 14.9997C12.3359 13.5269 13.5298 12.333 15.0026 12.333V12.333Z" fill="white"/>
</g>
</svg>
